<mxfile host="app.diagrams.net" modified="2024-08-07T14:37:26.374Z" agent="Mozilla/5.0 (Windows NT 10.0; Win64; x64) AppleWebKit/537.36 (KHTML, like Gecko) Chrome/127.0.0.0 Safari/537.36" version="24.0.7" etag="0GHAJgeaV7kihp2rI6Xm" type="github">
  <diagram name="Pagina-1" id="Tk67djcFtDxDj0q3k0Oi">
    <mxGraphModel>
      <root>
        <mxCell id="0" />
        <mxCell id="1" parent="0" />
      </root>
    </mxGraphModel>
  </diagram>
</mxfile>
